<svg xmlns="http://www.w3.org/2000/svg" width="52" height="60">
    <path fill="#FFF" fill-rule="evenodd" d="M50.195 41.25c-.719.721-1.594 1.082-2.626 1.082-1.006 0-1.87-.361-2.589-1.082-.719-.721-1.078-1.597-1.078-2.633V23.113c0-1.033.359-1.904 1.078-2.615.719-.707 1.583-1.063 2.589-1.063 1.032 0 1.907.356 2.626 1.063.719.711 1.079 1.582 1.079 2.615v15.504c0 1.036-.36 1.912-1.079 2.633zM11.608 11.053c1.534-2.368 3.596-4.212 6.185-5.536L15.24.794c-.168-.312-.109-.552.18-.721.311-.145.55-.072.718.217l2.59 4.759c2.277-1.009 4.687-1.516 7.229-1.516 2.54 0 4.95.507 7.228 1.516L35.775.29c.167-.289.406-.362.719-.217.288.169.347.409.179.721L34.12 5.517c2.564 1.324 4.615 3.168 6.149 5.536 1.535 2.369 2.302 4.957 2.302 7.77H9.306c0-2.813.767-5.402 2.302-7.77zm20.947 1.333c.275.278.605.416.989.416.383 0 .707-.138.971-.416.264-.276.395-.606.395-.991 0-.384-.131-.714-.395-.992-.264-.276-.587-.414-.971-.414s-.714.138-.989.414c-.276.277-.414.608-.414.992 0 .386.138.715.414.991zm-15.158 0c.263.278.586.416.971.416.383 0 .713-.138.989-.416.275-.276.413-.606.414-.991 0-.384-.139-.714-.414-.992-.276-.276-.606-.414-.989-.414-.384 0-.708.138-.971.414-.264.277-.396.608-.396.992 0 .386.132.715.396.991zM4.342 42.332c-1.031 0-1.906-.361-2.625-1.082-.719-.721-1.079-1.597-1.079-2.633V23.113c0-1.01.36-1.875 1.079-2.596.719-.721 1.594-1.082 2.625-1.082 1.007 0 1.871.361 2.59 1.082.719.721 1.079 1.586 1.079 2.596v15.504c0 1.036-.354 1.912-1.061 2.633-.709.721-1.578 1.082-2.608 1.082zm38.119 1.803c0 1.107-.383 2.044-1.15 2.812-.768.769-1.691 1.154-2.77 1.154h-2.697v8.185c0 1.033-.359 1.912-1.079 2.633C34.046 59.64 33.17 60 32.14 60s-1.906-.36-2.625-1.081c-.719-.721-1.079-1.6-1.079-2.633v-8.185h-4.962v8.185c0 1.033-.36 1.912-1.079 2.633C21.676 59.64 20.8 60 19.77 60c-1.006 0-1.87-.36-2.589-1.081-.719-.721-1.079-1.6-1.079-2.633l-.036-8.186h-2.662c-1.103 0-2.037-.385-2.805-1.154-.767-.768-1.15-1.705-1.15-2.812V20.12h33.012v24.015z"/>
</svg>
