<svg xmlns="http://www.w3.org/2000/svg" id="Layer_1" viewBox="0 0 283.54 274.32">
    <defs>
        <style>
            .cls-1{fill:#ffb63f}.cls-2{fill:#d87d22}.cls-4{fill:#ffefb6}
        </style>
    </defs>
    <ellipse cx="152.59" cy="125.15" rx="85.82" ry="123.13" transform="translate(-40.97 163.63) rotate(-50.6)"/>
    <ellipse cx="152.59" cy="125.15" class="cls-1" rx="85.82" ry="123.13" transform="translate(-40.97 163.63) rotate(-50.6)"/>
    <path d="M37.09 74.32l18.82-25.39 7 5.49C96.2 40.23 144.66 49.82 185.48 82s62.2 77.66 57.23 114.2l6.55 5.16-16.72 22.41c-.68 1-1.37 2-2.11 3-.6.8-1.23 1.57-1.86 2.34C199 264.43 134.28 260.26 82 219.07 28.65 177 8.52 112.16 37.09 74.32z" class="cls-1"/>
    <ellipse cx="152.59" cy="125.15" class="cls-1" rx="85.82" ry="123.13" transform="translate(-40.97 163.63) rotate(-50.6)"/>
    <path d="M79.22 33.18L79.22 33.18 79.22 33.18 79.22 33.18zM53.18 52.87a62.75 62.75 0 0126-19.69l10 14.61a52.23 52.23 0 00-22 16.85C55.6 80 53.17 101.1 60.32 124.12c7.24 23.33 23.42 45.79 45.55 63.24 16.84 13.28 35.71 22.5 54.57 26.66 18.27 4 35.32 3.09 49.3-2.72a52.3 52.3 0 0022.08-16.85c24.06-31.88 6.71-86.93-38.68-122.72-16.85-13.28-35.72-22.5-54.58-26.66-18.27-4-35.32-3.09-49.3 2.71l-10-14.6c33.3-13.81 81.42-4.15 122 27.84C252 101.07 272.71 161.7 250 200.09c-.65 1-1.31 1.91-2 2.85-.35.46-.71.91-1.07 1.36-29.73 34.7-94.06 30.36-146-10.62C49.28 153 28.75 91.14 53.18 52.87z" class="cls-2"/>
    <path d="M117.64 165.54c19.25 15.18 42.1 19.72 57.83 13.05l8.76 6.91c3.59 2.83 8.05 3.06 10 .52l.62-.83c1.92-2.55.57-6.9-3-9.73l-8.29-6.46c-2-1.61-2.75-4.12-1.51-5.47s3.54-.95 5.43.53l8.12 6.41c3.59 2.82 8.05 3.06 10 .51s.56-6.89-3-9.72l-8.24-6.5c-2-1.6-2.76-4.11-1.52-5.47s3.54-.95 5.43.54l8.12 6.4c3.59 2.83 8 3.06 10 .52l.63-.83c1.92-2.54.56-6.9-3-9.72l-8.76-6.91c2.31-17.24-7.78-38.68-27-53.86-31.22-24.61-70.07-26.63-86.77-4.5-16.84 22.07-5.07 60 26.15 84.61zm20.16-41.73a2.85 2.85 0 0 1 .07 3.11 2.19 2.19 0 0 1-1.35.81l-15.31 3c-1.71.34-3.91-.87-4.92-2.69s-.43-3.59 1.29-3.92l15.3-3a5.09 5.09 0 0 1 4.92 2.69zm8.3-26l1 15.89a2.21 2.21 0 0 1-.42 1.54 2.68 2.68 0 0 1-3 .73 5.18 5.18 0 0 1-3.8-4.18l-1-15.9c-.12-1.78 1.4-2.79 3.38-2.26a5.19 5.19 0 0 1 3.84 4.14zm18.22 32.39c-9.57-7.55-13.18-19.17-8.06-26s17-6.16 26.61 1.38 13.18 19.17 8.06 26-17.03 6.12-26.61-1.42zm9.26 23.71l-6.84-12.07c-.66-1.18.09-2.19 1.38-1.83l13.16 3.7c1.31.37 2.18 1.87 1.56 2.69l-6.32 8.37c-.62.78-2.26.3-2.94-.9zm-35.64 11.24c-9.57-7.55-13.18-19.17-8.06-26s17-6.17 26.61 1.37 13.18 19.17 8.06 26-17.03 6.14-26.61-1.41z" class="cls-2"/>
    <path fill="#fcda54" d="M82.31 28.78l10 14.61c14-5.8 31-6.74 49.3-2.71 18.85 4.16 37.72 13.38 54.57 26.66 45.39 35.79 62.75 90.84 38.69 122.72a52.26 52.26 0 0 1-22.09 16.85c-14 5.8-31 6.74-49.29 2.71-18.82-4.15-37.69-13.37-54.49-26.62-22.13-17.45-38.3-39.91-45.55-63.24-7.15-23-4.71-44.15 6.86-59.48a52.4 52.4 0 0 1 22.03-16.89l-10-14.61m0 0a62.74 62.74 0 0 0-26.4 20.15c-28.56 37.85-8.44 102.66 45 144.75 40.58 32 88.7 41.66 122 27.84a62.66 62.66 0 0 0 26.4-20.15c28.56-37.84 8.44-102.65-44.95-144.75-40.58-32-88.7-41.66-122-27.84z"/>
    <path d="M88.61 45.11L88.61 45.11 79.3 31.55 79.3 31.55 88.61 45.11zM74.79 55a51.51 51.51 0 00-7.54 8c-11.57 15.33-14 36.46-6.86 59.48 7.24 23.33 23.42 45.79 45.55 63.24 16.85 13.28 35.72 22.5 54.58 26.66 18.27 4 35.31 3.09 49.29-2.72a53.48 53.48 0 0017.56-11.63 53.93 53.93 0 01-14.55 8.86c-14 5.8-31 6.74-49.29 2.71-18.86-4.13-37.73-13.35-54.53-26.6-22.13-17.45-38.3-39.91-45.55-63.24-7.15-23-4.71-44.15 6.86-59.48A50.42 50.42 0 0174.79 55zM79.3 31.56c1.28-.53 2.58-1 3.9-1.47l-.89-1.3A64.26 64.26 0 0061.8 42.23a64.71 64.71 0 0117.5-10.67zM204.31 56.62c-40.58-32-88.7-41.66-122-27.84l.89 1.3c33.08-11.56 79.07-1.46 118.1 29.31 53.39 42.1 73.51 106.91 44.95 144.75a61.09 61.09 0 01-5.89 6.7 60.66 60.66 0 008.9-9.47c28.56-37.84 8.44-102.65-44.95-144.75z" class="cls-4"/>
    <path fill="#ffd65b" d="M120.08 161.93c19.25 15.18 42.1 19.72 57.83 13l8.76 6.91c3.58 2.83 8.05 3.06 10 .52l.62-.83c1.92-2.55.57-6.9-3-9.73l-8.29-6.44c-2-1.61-2.75-4.12-1.51-5.47s3.54-.95 5.43.53l8.12 6.41c3.58 2.82 8.05 3 10 .51s.57-6.89-3-9.72l-8.24-6.5c-2-1.6-2.75-4.11-1.51-5.47s3.54-1 5.43.54l8.12 6.4c3.59 2.83 8.05 3.06 10 .52l.62-.83c1.92-2.54.57-6.9-3-9.73l-8.76-6.9c2.32-17.24-7.77-38.68-27-53.86-31.22-24.62-70.07-26.63-86.78-4.5-16.83 22.13-5.06 60.03 26.16 84.64zm20.16-41.73a2.85 2.85 0 0 1 .07 3.11 2.19 2.19 0 0 1-1.35.81l-15.31 3a5.09 5.09 0 0 1-4.92-2.69c-1-1.83-.43-3.59 1.28-3.92l15.31-3a5.09 5.09 0 0 1 4.92 2.69zm8.3-26l1 15.89a2.27 2.27 0 0 1-.42 1.54 2.69 2.69 0 0 1-3 .73 5.2 5.2 0 0 1-3.81-4.18l-1-15.9c-.11-1.78 1.4-2.79 3.39-2.26a5.19 5.19 0 0 1 3.84 4.14zm18.22 32.39c-9.57-7.55-13.18-19.17-8.06-26s17-6.16 26.61 1.38 13.18 19.17 8.06 26-17.04 6.12-26.61-1.42zm9.24 23.67l-6.84-12.07c-.67-1.18.09-2.19 1.38-1.83l13.16 3.7c1.31.37 2.18 1.87 1.56 2.68l-6.26 8.38c-.66.82-2.3.34-3-.86zm-35.62 11.24c-9.57-7.55-13.18-19.17-8.06-26s17-6.16 26.61 1.38 13.18 19.17 8.06 26S150 169 140.38 161.5z"/>
</svg>
