<svg xmlns="http://www.w3.org/2000/svg" id="Layer_1" viewBox="0 0 273.34 267.46">
    <defs>
        <style>
            .cls-1{fill:#ffb63f}.cls-2{fill:#d87d22}.cls-4{fill:#ffefb6}
        </style>
    </defs>
    <ellipse cx="126.75" cy="125.4" rx="121.25" ry="115.11" transform="translate(-38.29 192.86) rotate(-66.92)"/>
    <ellipse cx="126.75" cy="125.4" class="cls-1" rx="121.25" ry="115.11" transform="translate(-38.29 192.86) rotate(-66.92)"/>
    <ellipse cx="142.75" cy="133.4" class="cls-1" rx="121.25" ry="115.11" transform="translate(-35.92 212.44) rotate(-66.92)"/>
    <ellipse cx="126.75" cy="125.4" class="cls-1" rx="121.25" ry="115.11" transform="translate(-38.29 192.86) rotate(-66.92)"/>
    <path d="M232.65 170.52c25-58.63 2.52-125-50.12-152.74-1.4-.67-2.81-1.31-4.25-1.93A109.71 109.71 0 0 0 135.15 7v18a91.52 91.52 0 0 1 36.07 7.37c23.7 10.1 41.87 29.38 51.15 54.3 9.41 25.25 8.6 53.22-2.28 78.75a107.12 107.12 0 0 1-38.88 47.28 98.45 98.45 0 0 1-54.85 17 91.57 91.57 0 0 1-36.08-7.37c-49.26-21-71.18-80.67-48.87-133a107.18 107.18 0 0 1 38.88-47.27 98.46 98.46 0 0 1 54.85-17V7C89.27 7 44.8 35.46 24.85 82.28-.12 140.9 22.34 207.26 75 235c1.4.67 2.82 1.32 4.26 1.93 58.46 24.93 127.15-4.81 153.39-66.41z" class="cls-2"/>
    <path d="M158.55 58.12C124.35 43.55 84.18 60.94 68.84 97c-9.47 22.22-4.51 46.78 10.67 62.39l-4.31 10.07A7.94 7.94 0 0 0 79.12 180l1.28.55a8 8 0 0 0 10.31-4.46l4-9.37a4.47 4.47 0 0 1 5.43-2.68 4.32 4.32 0 0 1 2.4 5.85l-4 9.51a7.74 7.74 0 1 0 14.23 6.06l4-9.37a4.46 4.46 0 0 1 5.42-2.68 4.33 4.33 0 0 1 2.41 5.85l-4 9.51a7.93 7.93 0 0 0 3.92 10.52l1.28.55a8 8 0 0 0 10.2-4.48l4.3-10.11c21.77.13 42.93-13.31 52.39-35.53 15.31-36.02.06-77.03-34.14-91.6zm-14.92 55.07l18.63-3.2a3.67 3.67 0 0 1 4.26 3.25 4.09 4.09 0 0 1-3.29 4.54L144.6 121a3.68 3.68 0 0 1-2-.23 3.73 3.73 0 0 1-2.22-3 4.1 4.1 0 0 1 3.25-4.58zm-30.36-22.64a3.66 3.66 0 0 1 5.29.83l10.6 15.62a4.11 4.11 0 0 1-1 5.53 3.74 3.74 0 0 1-3.72.48 3.55 3.55 0 0 1-1.58-1.31l-10.6-15.65a4.11 4.11 0 0 1 1.01-5.5zm-24.19 55.74c-10.49-4.47-15.18-17-10.47-28.09s17-16.38 27.51-11.91 15.17 17 10.46 28.09-17.02 16.37-27.5 11.91zm32.52 16.5l-12.95-5.51a1.88 1.88 0 0 1-.3-3.2l11.39-8.78a1.74 1.74 0 0 1 2.82 1.2l1.55 14.29a1.87 1.87 0 0 1-2.51 2zm21.49 6.51c-10.49-4.47-15.18-17.05-10.47-28.09s17-16.38 27.51-11.91 15.17 17 10.46 28.09-17.02 16.37-27.5 11.91z" class="cls-2"/>
    <path fill="#fcda54" d="M131.15 5v18a91.52 91.52 0 0 1 36.07 7.37c23.7 10.1 41.87 29.38 51.15 54.3 9.41 25.25 8.6 53.22-2.28 78.75a107.12 107.12 0 0 1-38.88 47.28 98.45 98.45 0 0 1-54.85 17 91.57 91.57 0 0 1-36.08-7.37c-49.26-21-71.18-80.67-48.87-133a107.18 107.18 0 0 1 38.88-47.27 98.46 98.46 0 0 1 54.85-17V5m0 0C85.27 5 40.8 33.46 20.85 80.28-5.39 141.89 20.74 212 79.23 236.94a109.71 109.71 0 0 0 43.13 8.81c45.87 0 90.34-28.41 110.29-75.23 26.25-61.61.11-131.75-58.37-156.67A109.76 109.76 0 0 0 131.14 5z"/>
    <path d="M136.21 23.18L136.22 23.18 136.22 8.38 136.22 8.38 136.21 23.18zM127.43 231.1a98.46 98.46 0 0054.85-17 107.18 107.18 0 0038.88-47.28c10.88-25.53 11.69-53.5 2.28-78.75a94.35 94.35 0 00-39-48 94.75 94.75 0 0134 44.68c9.41 25.25 8.6 53.22-2.28 78.75a107.12 107.12 0 01-38.88 47.28 98.45 98.45 0 01-54.85 17 91.57 91.57 0 01-36.08-7.37 90.34 90.34 0 01-12.1-6.26 92 92 0 0053.25 17zM25.92 83.62C45.13 38.53 87.1 10.52 131.15 8.51V5C85.27 5 40.8 33.46 20.85 80.28-3 136.35 16.47 199.48 64.26 229.16 20.19 198.28 2.9 137.67 25.92 83.62z" class="cls-4"/>
    <path d="M136.21 8.38A110.17 110.17 0 01194.31 25a110.17 110.17 0 00-63.16-20v3.51c1.68-.08 3.37-.13 5.06-.13zM218.37 84.71c9.41 25.25 8.6 53.22-2.28 78.75a107.12 107.12 0 01-38.88 47.28 98.45 98.45 0 01-54.85 17 92 92 0 01-53.65-17.26 92.62 92.62 0 0056.53 19.26c38.6 0 76-23.91 92.79-63.3a104.07 104.07 0 00-.85-84.71c.41 1 .82 1.98 1.19 2.98z" class="cls-4"/>
    <path fill="#ffd65b" d="M154.55 56.12C120.35 41.55 80.18 58.94 64.84 95c-9.47 22.22-4.51 46.78 10.67 62.39l-4.31 10.07A7.94 7.94 0 0 0 75.12 178l1.28.55a8 8 0 0 0 10.31-4.46l4-9.37a4.47 4.47 0 0 1 5.42-2.72 4.32 4.32 0 0 1 2.4 5.85l-4 9.51a7.74 7.74 0 1 0 14.23 6.06l4-9.37a4.46 4.46 0 0 1 5.42-2.68 4.33 4.33 0 0 1 2.41 5.85l-4 9.51a7.93 7.93 0 0 0 3.92 10.52l1.28.55a8 8 0 0 0 10.21-4.44l4.3-10.11c21.77.13 42.93-13.31 52.39-35.53 15.31-36.02.06-77.03-34.14-91.6zm-14.92 55.07l18.63-3.2a3.67 3.67 0 0 1 4.26 3.25 4.09 4.09 0 0 1-3.29 4.54L140.6 119a3.68 3.68 0 0 1-2-.23 3.73 3.73 0 0 1-2.22-3 4.1 4.1 0 0 1 3.25-4.58zm-30.36-22.64a3.66 3.66 0 0 1 5.29.83l10.6 15.62a4.11 4.11 0 0 1-1 5.53 3.74 3.74 0 0 1-3.72.48 3.55 3.55 0 0 1-1.58-1.31l-10.6-15.65a4.11 4.11 0 0 1 1.01-5.5zm-24.19 55.74c-10.49-4.47-15.18-17-10.47-28.09s17-16.38 27.51-11.91 15.17 17 10.46 28.09-17.02 16.37-27.5 11.91zm32.52 16.5l-12.95-5.51a1.88 1.88 0 0 1-.3-3.2l11.39-8.78a1.74 1.74 0 0 1 2.82 1.2l1.55 14.29a1.87 1.87 0 0 1-2.51 2zm21.49 6.51c-10.49-4.47-15.18-17.05-10.47-28.09s17-16.38 27.51-11.91 15.17 17 10.46 28.09-17.02 16.37-27.5 11.91z"/>
</svg>
